<?xml version="1.0" encoding="UTF-8"?>
<svg width="800px" height="800px" viewBox="0 0 800 800" version="1.1" xmlns="http://www.w3.org/2000/svg" xmlns:xlink="http://www.w3.org/1999/xlink">
    <title>Four Star Captain</title>
    <rect width="800" height="800" fill="#000000"/>
    <g id="White-Logo-2024-Circle" stroke="none" stroke-width="1" fill="none" fill-rule="evenodd">
        <g id="4SC/24" transform="translate(205, 120.378)" fill="#FFFFFF">
            <path d="M0.287479899,24.0015914 C2.49773904,8.69638919 16.696826,-1.91915963 32.0020282,0.291099509 L366.002028,48.5248008 C379.777141,50.5140962 390,62.3193104 390,76.2373209 L390,488.996534 C390,501.603752 381.574473,512.656246 369.417698,515.996122 L202.417698,561.876657 C197.562515,563.21054 192.437485,563.21054 187.582302,561.876657 L20.5823021,515.996122 C8.42552722,512.656246 7.10542736e-15,501.603752 7.10542736e-15,488.996534 L-2.48689958e-14,28.0036196 C-2.13162821e-14,26.664452 0.0960732328,25.3270096 0.287479899,24.0015914 Z M346,393.985327 L44,393.985327 C39.0294373,393.985327 35,398.014764 35,402.985327 L35,443.795852 C35,448.766414 39.0294373,452.795852 44,452.795852 L346,452.795852 C350.970563,452.795852 355,448.766414 355,443.795852 L355,402.985327 C355,398.014764 350.970563,393.985327 346,393.985327 Z M93.7072083,329.782501 C92.9626264,329.419335 92.0646195,329.728534 91.7014537,330.473116 L86.4685423,341.201908 C86.1562274,341.842233 85.4365968,342.174538 84.7466334,341.997036 L74.1008711,339.258283 C73.6558392,339.143793 73.1828821,339.239608 72.8174991,339.518277 C72.1587872,340.020662 72.0320589,340.961916 72.5344435,341.620628 L78.5889366,349.559101 C79.0695028,350.189206 78.9770322,351.084419 78.3778145,351.602988 L69.5966524,359.202289 C69.1752735,359.566954 68.9907851,360.135162 69.1175738,360.677809 C69.3060583,361.484509 70.1128149,361.985672 70.919515,361.797187 L80.9682908,359.449303 C81.034004,359.433949 81.1006784,359.423048 81.1678596,359.416672 C81.9925814,359.338407 82.7245973,359.943529 82.802863,360.76825 L83.7142142,370.371577 C83.763589,370.891862 84.0802068,371.348941 84.5499351,371.578049 C85.2945169,371.941215 86.1925238,371.632016 86.5556896,370.887434 L91.7886009,360.158642 C92.1009159,359.518317 92.8205464,359.186013 93.5105098,359.363514 L104.156272,362.102267 C104.601304,362.216757 105.074261,362.120942 105.439644,361.842273 C106.098356,361.339888 106.225084,360.398634 105.7227,359.739922 L99.6682064,351.801449 C99.1876402,351.171344 99.2801108,350.27613 99.8793285,349.757562 L108.660491,342.158261 C109.081869,341.793596 109.266358,341.225388 109.139569,340.682741 C108.951085,339.876041 108.144328,339.374878 107.337628,339.563362 L97.2888526,341.911246 C97.2231394,341.9266 97.156465,341.937502 97.0892838,341.943877 C96.264562,342.022143 95.532546,341.417021 95.4542803,340.592299 L94.5429292,330.988973 C94.4935544,330.468687 94.1769366,330.011608 93.7072083,329.782501 Z M164.707208,329.782501 C163.962626,329.419335 163.06462,329.728534 162.701454,330.473116 L157.468542,341.201908 C157.156227,341.842233 156.436597,342.174538 155.746633,341.997036 L145.100871,339.258283 C144.655839,339.143793 144.182882,339.239608 143.817499,339.518277 C143.158787,340.020662 143.032059,340.961916 143.534443,341.620628 L149.588937,349.559101 C150.069503,350.189206 149.977032,351.084419 149.377815,351.602988 L140.596652,359.202289 C140.175273,359.566954 139.990785,360.135162 140.117574,360.677809 C140.306058,361.484509 141.112815,361.985672 141.919515,361.797187 L151.968291,359.449303 C152.034004,359.433949 152.100678,359.423048 152.16786,359.416672 C152.992581,359.338407 153.724597,359.943529 153.802863,360.76825 L154.714214,370.371577 C154.763589,370.891862 155.080207,371.348941 155.549935,371.578049 C156.294517,371.941215 157.192524,371.632016 157.55569,370.887434 L162.788601,360.158642 C163.100916,359.518317 163.820546,359.186013 164.51051,359.363514 L175.156272,362.102267 C175.601304,362.216757 176.074261,362.120942 176.439644,361.842273 C177.098356,361.339888 177.225084,360.398634 176.7227,359.739922 L170.668206,351.801449 C170.18764,351.171344 170.280111,350.27613 170.879328,349.757562 L179.660491,342.158261 C180.081869,341.793596 180.266358,341.225388 180.139569,340.682741 C179.951085,339.876041 179.144328,339.374878 178.337628,339.563362 L168.288853,341.911246 C168.223139,341.9266 168.156465,341.937502 168.089284,341.943877 C167.264562,342.022143 166.532546,341.417021 166.45428,340.592299 L165.542929,330.988973 C165.493554,330.468687 165.176937,330.011608 164.707208,329.782501 Z M235.707208,329.782501 C234.962626,329.419335 234.06462,329.728534 233.701454,330.473116 L228.468542,341.201908 C228.156227,341.842233 227.436597,342.174538 226.746633,341.997036 L216.100871,339.258283 C215.655839,339.143793 215.182882,339.239608 214.817499,339.518277 C214.158787,340.020662 214.032059,340.961916 214.534443,341.620628 L220.588937,349.559101 C221.069503,350.189206 220.977032,351.084419 220.377815,351.602988 L211.596652,359.202289 C211.175273,359.566954 210.990785,360.135162 211.117574,360.677809 C211.306058,361.484509 212.112815,361.985672 212.919515,361.797187 L222.968291,359.449303 C223.034004,359.433949 223.100678,359.423048 223.16786,359.416672 C223.992581,359.338407 224.724597,359.943529 224.802863,360.76825 L225.714214,370.371577 C225.763589,370.891862 226.080207,371.348941 226.549935,371.578049 C227.294517,371.941215 228.192524,371.632016 228.55569,370.887434 L233.788601,360.158642 C234.100916,359.518317 234.820546,359.186013 235.51051,359.363514 L246.156272,362.102267 C246.601304,362.216757 247.074261,362.120942 247.439644,361.842273 C248.098356,361.339888 248.225084,360.398634 247.7227,359.739922 L241.668206,351.801449 C241.18764,351.171344 241.280111,350.27613 241.879328,349.757562 L250.660491,342.158261 C251.081869,341.793596 251.266358,341.225388 251.139569,340.682741 C250.951085,339.876041 250.144328,339.374878 249.337628,339.563362 L239.288853,341.911246 C239.223139,341.9266 239.156465,341.937502 239.089284,341.943877 C238.264562,342.022143 237.532546,341.417021 237.45428,340.592299 L236.542929,330.988973 C236.493554,330.468687 236.176937,330.011608 235.707208,329.782501 Z M305.707208,329.782501 C304.962626,329.419335 304.06462,329.728534 303.701454,330.473116 L298.468542,341.201908 C298.156227,341.842233 297.436597,342.174538 296.746633,341.997036 L286.100871,339.258283 C285.655839,339.143793 285.182882,339.239608 284.817499,339.518277 C284.158787,340.020662 284.032059,340.961916 284.534443,341.620628 L290.588937,349.559101 C291.069503,350.189206 290.977032,351.084419 290.377815,351.602988 L281.596652,359.202289 C281.175273,359.566954 280.990785,360.135162 281.117574,360.677809 C281.306058,361.484509 282.112815,361.985672 282.919515,361.797187 L292.968291,359.449303 C293.034004,359.433949 293.100678,359.423048 293.16786,359.416672 C293.992581,359.338407 294.724597,359.943529 294.802863,360.76825 L295.714214,370.371577 C295.763589,370.891862 296.080207,371.348941 296.549935,371.578049 C297.294517,371.941215 298.192524,371.632016 298.55569,370.887434 L303.788601,360.158642 C304.100916,359.518317 304.820546,359.186013 305.51051,359.363514 L316.156272,362.102267 C316.601304,362.216757 317.074261,362.120942 317.439644,361.842273 C318.098356,361.339888 318.225084,360.398634 317.7227,359.739922 L311.668206,351.801449 C311.18764,351.171344 311.280111,350.27613 311.879328,349.757562 L320.660491,342.158261 C321.081869,341.793596 321.266358,341.225388 321.139569,340.682741 C320.951085,339.876041 320.144328,339.374878 319.337628,339.563362 L309.288853,341.911246 C309.223139,341.9266 309.156465,341.937502 309.089284,341.943877 C308.264562,342.022143 307.532546,341.417021 307.45428,340.592299 L306.542929,330.988973 C306.493554,330.468687 306.176937,330.011608 305.707208,329.782501 Z M346,248.311271 L44,248.311271 C39.0294373,248.311271 35,252.340709 35,257.311271 L35,298.121796 C35,303.092358 39.0294373,307.121796 44,307.121796 L346,307.121796 C350.970563,307.121796 355,303.092358 355,298.121796 L355,257.311271 C355,252.340709 350.970563,248.311271 346,248.311271 Z M346,173.217583 L44,173.217583 C39.0294373,173.217583 35,177.24702 35,182.217583 L35,223.028107 C35,227.99867 39.0294373,232.028107 44,232.028107 L346,232.028107 C350.970563,232.028107 355,227.99867 355,223.028107 L355,182.217583 C355,177.24702 350.970563,173.217583 346,173.217583 Z M346,99.8882103 L44,99.8882103 C39.0294373,99.8882103 35,103.917648 35,108.88821 L35,147.934419 C35,152.904982 39.0294373,156.934419 44,156.934419 L346,156.934419 C350.970563,156.934419 355,152.904982 355,147.934419 L355,108.88821 C355,103.917648 350.970563,99.8882103 346,99.8882103 Z" id="Combined-Shape"></path>
        </g>
    </g>
</svg>